<svg width="200" height="60" xmlns="http://www.w3.org/2000/svg">

 <g>
  <title>background</title>
  <rect fill="none" id="canvas_background" height="402" width="582" y="-1" x="-1"/>
 </g>
 <g>
  <title>Layer 1</title>
  <g id="svg_1">
   <g id="svg_2">
    <polygon fill="#ffffff" id="svg_3" points="58.144,17.099 55.844,17.099 55.097,17.099 51.835,38.571 52.584,38.563 52.583,38.571 55.626,38.537     58.891,17.099   "/>
    <path fill="#ffffff" id="svg_4" d="m76.067,22.793l-0.747,0l-13.946,0l-0.747,0c-0.289,1.808 -0.231,1.441 -0.55,3.618l-1.288,8.509c-0.319,2.178 -0.307,1.941 -0.55,3.617l0.748,0l2.271,0l0.748,0c0.188,-1.273 0.231,-1.439 0.55,-3.617l1.176,-7.738c0.154,-0.972 0.47,-1.307 1.296,-1.307l9.36,0c0.712,0 0.795,0.335 0.657,1.139l-1.192,7.906c-0.318,2.178 -0.342,2.244 -0.55,3.617l0.747,0l2.271,0l0.747,0c0.25,-1.574 0.384,-2.445 0.702,-4.623l1.041,-6.9c0.477,-3.048 -0.458,-4.12 -2.744,-4.221"/>
    <path fill="#ffffff" id="svg_5" d="m91.37,17.099l-3.694,0l-0.747,0c-2.848,0 -4.051,1.775 -4.405,4.221l-2.067,13.6c-0.318,2.178 -0.399,2.612 -0.551,3.617l0.747,0l2.271,0l0.748,0c0.186,-1.307 0.232,-1.439 0.55,-3.617l1.386,-9.078l4.094,0l0.748,0l0.452,-3.048l-0.748,0l-4.093,0l0.249,-1.575c0.091,-0.669 0.402,-1.072 1.257,-1.072l3.353,0l0.748,0l0.45,-3.048l-0.748,0z"/>
    <path fill="#ffffff" id="svg_6" d="m107.906,22.794l-0.748,0l-9.731,0l-0.748,0c-3.018,0 -4.101,1.474 -4.593,4.757l-0.948,6.229c-0.49,3.284 0.134,4.758 3.153,4.758l0.747,0l9.731,0l0.748,0c3.018,0 4.102,-1.474 4.592,-4.758l0.949,-6.229c0.491,-3.283 -0.134,-4.757 -3.152,-4.757m-12.277,12.662c-0.739,0 -0.91,-0.37 -0.78,-1.274l1.06,-7.034c0.129,-0.905 0.416,-1.272 1.156,-1.272l9.446,0c0.796,0 0.968,0.368 0.837,1.272l-1.059,7.034c-0.131,0.904 -0.416,1.274 -1.213,1.274l-9.447,0z"/>
   </g>
   <g id="svg_7">
    <path id="svg_8" d="m133.067,17.099l-0.747,0l-2.498,0l-0.747,0l-9.386,16.489l-4.389,-16.489l-0.748,0l-2.498,0l-0.748,0l5.537,21.473c0.301,-0.006 0.543,-0.01 0.744,-0.014l0.004,0.014c0.683,-0.012 1.064,-0.021 1.346,-0.024c0.283,0.004 0.666,0.013 1.352,0.024l0.008,-0.014c0.201,0.004 0.441,0.008 0.74,0.014l12.03,-21.473z" fill="#ffffff"/>
    <polygon id="svg_9" points="132.318,22.793 131.571,22.793 129.184,38.537 129.931,38.537 132.201,38.537 132.949,38.537     135.338,22.793 134.589,22.793   " fill="#ffffff"/>
    <path id="svg_10" d="m141.713,25.875l10.33,0l0.747,0l0.448,-3.082l-0.746,0l-10.557,0l-0.748,0c-3.815,0 -5.96,6.23 -2.81,8.341c0.481,0.334 1.001,0.436 1.001,0.436s7.832,0.77 8.725,0.904c0.461,0.066 0.9,0.233 1.152,0.535c0.231,0.436 0.431,1.172 -0.223,1.942c-0.129,0.169 -0.417,0.504 -1.357,0.504l-10.328,0l-0.747,0l-0.477,3.081l0.746,0l10.273,0l0.171,0l0.575,0l0.172,0c5.172,-0.134 7.055,-8.308 1.611,-9.111c-0.863,-0.134 -7.977,-0.804 -8.525,-0.905c-0.674,-0.268 -0.819,-1.038 -0.511,-1.841c0.304,-0.502 0.6,-0.737 1.078,-0.804" fill="#ffffff"/>
    <path id="svg_11" d="m164.385,22.793l-4.32,0l0.509,-3.417l-0.749,0l-2.27,0l-0.747,0l-2.162,14.236c-0.583,3.919 1.115,4.924 3.251,4.924l0.748,0l3.723,0l0.747,0l0.478,-3.082l-0.318,0l-0.115,0l-0.314,0l-0.135,0l-0.182,0l-0.116,0l-0.449,0l-2.47,0c-1.197,0 -1.302,-0.269 -1.152,-1.273l1.248,-8.307l4.32,0l0.747,0l0.477,-3.082l-0.749,0l0,0.001z" fill="#ffffff"/>
    <path id="svg_12" d="m181.174,22.794l-0.748,0l-9.988,0l-0.747,0l-0.448,3.082l0.746,0l10.302,0c0.94,0 1.106,0.301 0.988,1.004c-0.114,0.736 -0.112,0.771 -0.19,1.239l-10.5,0l-0.748,0c-3.019,0 -4.191,2.178 -4.592,4.756l-0.13,0.904c-0.491,3.284 0.135,4.758 3.153,4.758l0.746,0l13.519,0l0.748,0c0.165,-1.173 0.21,-1.34 0.458,-2.948l1.043,-6.867c0.643,-4.254 -0.225,-5.928 -3.612,-5.928m-11.109,12.662c-1.026,0 -1.411,-0.202 -1.242,-1.341l0.248,-1.607c0.169,-1.139 0.61,-1.34 1.634,-1.34l9.931,0l-0.417,2.746c-0.23,1.44 -0.424,1.542 -1.363,1.542l-8.791,0z" fill="#ffffff"/>
   </g>
   <path id="svg_13" d="m41.649,20.983l-0.054,0c-1.797,0 -3.546,0.172 -5.197,0.512c-2.246,0.463 -4.79,1.432 -7.775,2.959l-0.431,0.222l0.225,0.427c0.591,1.122 1.373,2.164 2.322,3.098l0.332,0.326l0.335,-0.321c3.28,-3.145 6.78,-5.259 10.402,-6.284l-0.159,-0.939z" fill="#ffffff"/>
   <path fill="#ffffff" id="svg_14" d="m188.762,19.368c0.306,0 0.605,0.079 0.896,0.236c0.292,0.158 0.52,0.383 0.682,0.675c0.164,0.293 0.245,0.598 0.245,0.916c0,0.314 -0.08,0.617 -0.241,0.908c-0.16,0.289 -0.385,0.516 -0.675,0.676c-0.289,0.16 -0.591,0.24 -0.907,0.24s-0.619,-0.08 -0.908,-0.24s-0.516,-0.387 -0.677,-0.676c-0.161,-0.291 -0.241,-0.593 -0.241,-0.908c0,-0.318 0.082,-0.622 0.246,-0.916c0.162,-0.292 0.391,-0.517 0.683,-0.675c0.29,-0.157 0.59,-0.236 0.897,-0.236m0,0.305c-0.257,0 -0.506,0.065 -0.748,0.197c-0.242,0.131 -0.432,0.318 -0.568,0.563s-0.205,0.498 -0.205,0.761c0,0.263 0.066,0.514 0.201,0.755c0.135,0.24 0.322,0.428 0.564,0.562c0.24,0.134 0.493,0.202 0.756,0.202c0.262,0 0.514,-0.067 0.756,-0.202c0.241,-0.134 0.429,-0.322 0.563,-0.562c0.133,-0.241 0.201,-0.492 0.201,-0.755c0,-0.264 -0.068,-0.517 -0.205,-0.761s-0.326,-0.432 -0.568,-0.563c-0.245,-0.132 -0.493,-0.197 -0.747,-0.197m-0.799,2.529l0,-1.962l0.674,0c0.23,0 0.396,0.019 0.5,0.054c0.103,0.037 0.186,0.1 0.246,0.189c0.062,0.09 0.092,0.186 0.092,0.288c0,0.143 -0.051,0.268 -0.153,0.375c-0.103,0.105 -0.239,0.165 -0.408,0.178c0.069,0.029 0.124,0.063 0.167,0.104c0.079,0.078 0.176,0.208 0.29,0.39l0.239,0.385l-0.389,0l-0.174,-0.31c-0.137,-0.243 -0.246,-0.396 -0.33,-0.457c-0.057,-0.045 -0.142,-0.066 -0.254,-0.064l-0.186,0l0,0.831l-0.314,0l0,-0.001zm0.314,-1.104l0.385,0c0.184,0 0.309,-0.027 0.377,-0.082c0.066,-0.055 0.1,-0.127 0.1,-0.216c0,-0.058 -0.016,-0.109 -0.048,-0.155s-0.077,-0.079 -0.135,-0.102c-0.057,-0.022 -0.162,-0.034 -0.317,-0.034l-0.361,0l0,0.589l-0.001,0z"/>
   <path fill="#ffffff" id="svg_15" d="m52.636,43.799c-0.02,-0.076 -0.085,-0.215 -0.3,-0.269c-0.098,-0.022 -0.269,0.017 -0.852,0.121c-1.694,0.302 -6.19,1.108 -11.294,1.108l-0.002,0c-7.051,0 -12.476,-1.474 -16.2,-4.377c2.121,-3.948 4.431,-7.029 6.747,-9.436c1.565,0.992 3.622,1.792 6.285,2.448c-1.047,1.703 -1.917,3.338 -2.429,4.787c-0.718,2.036 -0.524,3.913 -0.515,3.99c0.005,0.043 0.024,0.083 0.056,0.112c0.281,0.252 0.557,0.381 0.822,0.381c0.516,0 0.771,-0.476 0.782,-0.497c0.008,-0.016 0.014,-0.032 0.017,-0.049c0.612,-3.363 1.734,-6.063 3.033,-8.33c0.445,0.09 0.899,0.179 1.373,0.262c0.02,0.004 0.038,0.006 0.056,0.006c0.061,0 0.121,-0.018 0.172,-0.051c0.526,-0.336 0.769,-0.653 0.722,-0.941c-0.015,-0.091 -0.083,-0.31 -0.407,-0.391c-0.021,-0.006 -0.062,-0.014 -0.121,-0.027c-0.255,-0.055 -0.58,-0.127 -0.956,-0.227c1.088,-1.679 2.242,-3.117 3.296,-4.422c0.457,-0.566 0.888,-1.102 1.287,-1.623c1.022,-1.336 1.796,-2.051 2.361,-2.573c0.303,-0.279 0.542,-0.501 0.74,-0.739c0.51,-0.615 0.739,-1.075 0.701,-1.402c0.089,-0.367 -0.358,-0.864 -0.506,-1.014c-0.02,-0.021 -0.043,-0.036 -0.071,-0.044c-5.514,-1.775 -10.662,-2.677 -15.303,-2.677c-1.753,0 -3.385,0.128 -4.907,0.355c0.009,-1.188 0.178,-2.49 0.604,-3.904l0,0c0.025,-0.084 0.017,-0.181 -0.026,-0.258c-0.107,-0.195 -0.339,-0.195 -0.437,-0.195c-0.209,0 -0.549,0.042 -1.041,0.128c-0.114,0.02 -0.209,0.101 -0.248,0.21c-0.039,0.114 -0.638,1.888 -0.772,4.371c-2.604,0.572 -4.843,1.457 -6.765,2.524c0.283,-1.772 0.692,-3.637 1.234,-5.599c0.013,-0.046 0.006,-0.095 -0.019,-0.137c-0.025,-0.041 -0.065,-0.07 -0.112,-0.08c-0.053,-0.01 -0.361,-0.064 -1.494,0.301c-0.04,0.013 -0.073,0.039 -0.095,0.075c-0.015,0.023 -1.438,2.373 -2.099,6.042c-0.069,0.387 -0.128,0.788 -0.176,1.2c-2.232,1.702 -3.896,3.626 -5.12,5.42c-2.884,4.233 -3.301,8.436 -3.305,8.477c-0.003,0.025 0.001,0.051 0.01,0.074c0.063,0.176 0.255,0.712 0.65,0.712c0.323,0 0.53,-0.373 0.553,-0.416c0.006,-0.01 0.011,-0.021 0.013,-0.03c1.57,-5.135 4.069,-8.804 7.035,-11.403c-0.01,2.04 0.196,4.19 0.613,6.2c0.004,0.018 0.008,0.033 0.011,0.051c-0.771,0.943 -1.36,1.759 -1.759,2.342c-1.438,2.105 -1.133,3.877 -1.12,3.952c0.005,0.022 0.015,0.046 0.03,0.068c0.407,0.573 0.594,0.691 0.746,0.691c0.073,0 0.138,-0.03 0.185,-0.086c0.082,-0.097 0.082,-0.251 0.071,-0.346c0.574,-1.544 1.391,-3.03 2.441,-4.454c0.771,2.257 2.166,4.887 4.676,7.146c-2.376,5 -2.824,9.237 -2.828,9.282c-0.005,0.05 0.011,0.098 0.044,0.134c0.234,0.256 0.417,0.373 0.578,0.373c0.086,0 0.163,-0.033 0.221,-0.096c0.104,-0.109 0.118,-0.287 0.118,-0.369c0.996,-3.047 2.096,-5.766 3.268,-8.191c2.093,1.515 4.806,2.773 8.329,3.49c1.87,0.383 3.999,0.577 6.327,0.577l0.001,0c4.084,0 8.801,-0.567 14.42,-1.736c0.031,-0.007 0.059,-0.021 0.083,-0.042c0.157,-0.137 0.656,-0.63 0.568,-0.979m-34.436,-19.942c2.257,-1.433 4.683,-2.387 7.121,-2.989c0.059,0.804 0.179,1.646 0.387,2.501c0.032,0.131 0.065,0.258 0.099,0.386c-3.096,1.786 -5.624,3.991 -7.544,6c-0.229,-1.809 -0.25,-3.776 -0.063,-5.898m10.641,1.023c2.239,-1.146 4.992,-2.367 7.655,-2.917c1.617,-0.334 3.332,-0.503 5.1,-0.503c0.028,0 0.056,0.001 0.083,0.001c-4.13,1.169 -7.672,3.59 -10.604,6.4c-0.86,-0.847 -1.631,-1.835 -2.234,-2.981m16.177,-2.207c-1.648,1.329 -2.828,3.054 -3.979,4.739c-0.253,0.372 -0.505,0.741 -0.761,1.105c-0.795,1.127 -1.584,2.27 -2.32,3.396c-1.603,-0.551 -3.569,-1.422 -5.365,-2.759c4.916,-4.385 9.639,-5.935 12.425,-6.481m-17.096,-0.022c-0.215,-0.659 -0.409,-1.398 -0.54,-2.214c2.03,-0.35 4.035,-0.487 5.921,-0.487c1.666,0 3.287,0.103 4.824,0.269c-3.824,0.082 -7.234,1.035 -10.205,2.432m-1.312,3.43c0.656,1.484 1.517,2.711 2.6,3.707c-2.977,3.294 -5.183,6.829 -6.585,9.4c-0.463,-0.462 -0.896,-0.945 -1.291,-1.462c-1.236,-1.624 -2.118,-3.525 -2.652,-5.696c2.059,-2.15 4.706,-4.137 7.928,-5.949"/>
  </g>
 </g>
</svg>